{"accessors" : [{"bufferView" : 0, "byteOffset" : 0, "componentType" : 5123, "count" : 17280, "type" : "SCALAR", "max" : [14276], "min" : [0]}, {"bufferView" : 1, "byteOffset" : 0, "componentType" : 5126, "count" : 14277, "type" : "VEC3", "max" : [0.3005434274673462, 0.052814703434705734, 0.2812546491622925], "min" : [-0.2590399980545044, -0.0366661511361599, -0.27690672874450684], "name" : "POSITION"}, {"bufferView" : 1, "byteOffset" : 12, "componentType" : 5126, "count" : 14277, "type" : "VEC3", "max" : [0.9999946355819702, 0.9994266033172607, 0.9980342388153076], "min" : [-0.9999641180038452, -0.9992186427116394, -0.997617244720459], "name" : "NORMAL"}], "asset" : {"generator" : "Aspose.3D 22.10", "version" : "2.0"}, "buffers" : [{"uri" : "data:application/octet-stream;base64,", "byteLength" : 449288}], "bufferViews" : [{"buffer" : 0, "byteOffset" : 0, "byteLength" : 34560, "target" : 34963}, {"buffer" : 0, "byteOffset" : 34564, "byteLength" : 414720, "byteStride" : 24, "target" : 34962}], "materials" : [{"name" : "Material.001", "pbrMetallicRoughness" : {"baseColorFactor" : [0.13013651967048645, 0.12477182596921921, 1, 1], "metallicFactor" : 0, "roughnessFactor" : 0.4000000059604645}, "emissiveFactor" : [0, 0, 0], "alphaMode" : "OPAQUE", "doubleSided" : true}], "meshes" : [{"primitives" : [{"attributes" : {"POSITION" : 1, "NORMAL" : 2}, "indices" : 0, "material" : 0, "mode" : 4}]}], "nodes" : [{"matrix" : [1.011330485343933, 0, 0, 0, 0, -3.5572414319184095E-07, 2.6475678663290014, 0, 0, -1.0113306212251407, -1.3588120753928212E-07, 0, -0.02424214780330658, 0.006400975398719311, 0.001532884780317545, 1], "mesh" : 0, "name" : "Plane"}], "scene" : 0, "scenes" : [{"nodes" : [0]}]}