{"accessors" : [{"bufferView" : 0, "byteOffset" : 0, "componentType" : 5123, "count" : 2880, "type" : "SCALAR", "max" : [2400], "min" : [0]}, {"bufferView" : 1, "byteOffset" : 0, "componentType" : 5126, "count" : 2401, "type" : "VEC3", "max" : [0.9999997019767761, 1, 0.9999994039535522], "min" : [-0.9999990463256836, -1, -0.9999987483024597], "name" : "POSITION"}, {"bufferView" : 1, "byteOffset" : 12, "componentType" : 5126, "count" : 2401, "type" : "VEC3", "max" : [1.0000044107437134, 1.0000044107437134, 1.0000044107437134], "min" : [-1.0000042915344238, -1.0000044107437134, -1.0000044107437134], "name" : "NORMAL"}, {"bufferView" : 0, "byteOffset" : 5760, "componentType" : 5123, "count" : 43854, "type" : "SCALAR", "max" : [36378], "min" : [0]}, {"bufferView" : 2, "byteOffset" : 0, "componentType" : 5126, "count" : 36379, "type" : "VEC3", "max" : [1.037530541419983, 1.0017093420028687, 1.037530541419983], "min" : [-1.037530541419983, -1.0017093420028687, -1.037530541419983], "name" : "POSITION"}, {"bufferView" : 2, "byteOffset" : 12, "componentType" : 5126, "count" : 36379, "type" : "VEC3", "max" : [1.0000044107437134, 0.9998658895492554, 1.0000044107437134], "min" : [-1.0000044107437134, -0.9998659491539001, -1.0000044107437134], "name" : "NORMAL"}], "asset" : {"generator" : "Aspose.3D 22.10", "version" : "2.0"}, "buffers" : [{"uri" : "data:application/octet-stream;base64,", "byteLength" : 1215096}], "bufferViews" : [{"buffer" : 0, "byteOffset" : 0, "byteLength" : 93468, "target" : 34963}, {"buffer" : 0, "byteOffset" : 93472, "byteLength" : 69120, "byteStride" : 24, "target" : 34962}, {"buffer" : 0, "byteOffset" : 162596, "byteLength" : 1052496, "byteStride" : 24, "target" : 34962}], "materials" : [{"name" : "Material.001", "pbrMetallicRoughness" : {"baseColorFactor" : [0.13013651967048645, 0.12477182596921921, 1, 1], "metallicFactor" : 0, "roughnessFactor" : 0.4000000059604645}, "emissiveFactor" : [0, 0, 0], "alphaMode" : "OPAQUE", "doubleSided" : true}, {"name" : "Material.001", "pbrMetallicRoughness" : {"baseColorFactor" : [0.13013651967048645, 0.12477182596921921, 1, 1], "metallicFactor" : 0, "roughnessFactor" : 0.4000000059604645}, "emissiveFactor" : [0, 0, 0], "alphaMode" : "OPAQUE", "doubleSided" : true}], "meshes" : [{"primitives" : [{"attributes" : {"POSITION" : 1, "NORMAL" : 2}, "indices" : 0, "material" : 0, "mode" : 4}]}, {"primitives" : [{"attributes" : {"POSITION" : 4, "NORMAL" : 5}, "indices" : 3, "material" : 1, "mode" : 4}]}], "nodes" : [{"matrix" : [0.050135254859924316, 0, 0, 0, 0, 0.050135254859924316, 0, 0, 0, 0, 0.050135254859924316, 0, 3.4732045605778694E-05, 0.011034030467271805, -0.18845683336257935, 1], "mesh" : 0, "name" : "Sphere"}, {"matrix" : [-0.053292055202394516, 0.09139826314188094, 0.24361550929032894, 0, 0.12271015466660565, -0.21045369561177163, 0.10580021521397798, 0, 0.22944365758797758, 0.1337827463373913, 7.217436772969072E-09, 0, 0, 0.011395133100450039, -0.18518173694610596, 1], "mesh" : 1, "name" : "Torus.002"}], "scene" : 0, "scenes" : [{"nodes" : [0, 1]}]}