{"accessors" : [{"bufferView" : 0, "byteOffset" : 0, "componentType" : 5123, "count" : 1212, "type" : "SCALAR", "max" : [1016], "min" : [0]}, {"bufferView" : 1, "byteOffset" : 0, "componentType" : 5126, "count" : 1017, "type" : "VEC3", "max" : [0.001721909618936479, 0.0005799999926239252, 0.0014668360818177462], "min" : [-0.0015740873059257865, -0.0005799999926239252, -0.002223776653409004], "name" : "POSITION"}, {"bufferView" : 1, "byteOffset" : 12, "componentType" : 5126, "count" : 1017, "type" : "VEC3", "max" : [0.7649396061897278, 1.0000044107437134, 0.9967788457870483], "min" : [-0.7650971412658691, -1.0000044107437134, -0.9966105222702026], "name" : "NORMAL"}, {"bufferView" : 0, "byteOffset" : 2424, "componentType" : 5123, "count" : 7248, "type" : "SCALAR", "max" : [5964], "min" : [0]}, {"bufferView" : 2, "byteOffset" : 0, "componentType" : 5126, "count" : 5965, "type" : "VEC3", "max" : [0.0024341659154742956, 1.200541305479419E-06, 0.0027088001370429993], "min" : [-0.0025159104261547327, -0.0015417244285345078, -0.0029187987092882395], "name" : "POSITION"}, {"bufferView" : 2, "byteOffset" : 12, "componentType" : 5126, "count" : 5965, "type" : "VEC3", "max" : [0.988305389881134, 0.9999831914901733, 0.9854572415351868], "min" : [-0.9883004426956177, -0.9999832510948181, -0.9981105327606201], "name" : "NORMAL"}], "asset" : {"generator" : "Aspose.3D 22.10", "version" : "2.0"}, "buffers" : [{"uri" : "data:application/octet-stream;base64,", "byteLength" : 219972}], "bufferViews" : [{"buffer" : 0, "byteOffset" : 0, "byteLength" : 16920, "target" : 34963}, {"buffer" : 0, "byteOffset" : 16924, "byteLength" : 29088, "byteStride" : 24, "target" : 34962}, {"buffer" : 0, "byteOffset" : 46016, "byteLength" : 173952, "byteStride" : 24, "target" : 34962}], "materials" : [{"name" : "Material.002", "pbrMetallicRoughness" : {"baseColorFactor" : [0.44520115852355957, 0.43965718150138855, 1, 1], "metallicFactor" : 0, "roughnessFactor" : 0.4000000059604645}, "emissiveFactor" : [0, 0, 0], "alphaMode" : "OPAQUE", "doubleSided" : true}, {"name" : "Material.005", "pbrMetallicRoughness" : {"baseColorFactor" : [0.13013651967048645, 0.12477182596921921, 1, 1], "metallicFactor" : 0, "roughnessFactor" : 0.4000000059604645}, "emissiveFactor" : [0, 0, 0], "alphaMode" : "OPAQUE", "doubleSided" : true}], "meshes" : [{"primitives" : [{"attributes" : {"POSITION" : 1, "NORMAL" : 2}, "indices" : 0, "material" : 0, "mode" : 4}]}, {"primitives" : [{"attributes" : {"POSITION" : 4, "NORMAL" : 5}, "indices" : 3, "material" : 1, "mode" : 4}]}], "nodes" : [{"matrix" : [93.96925576283871, 5.939116586074117, -33.68240494207717, 0, 34.20201029917719, -16.317609460083215, 92.54165441758738, 0, -4.789197483034968E-06, -98.48077825085599, -17.364836344364008, 0, 0.0015773270279169083, -0.03356534242630005, -0.011630121618509293, 1], "mesh" : 0, "name" : "Curve.001"}, {"matrix" : [93.96925576283871, 5.939116586074117, -33.68240494207717, 0, 34.20201029917719, -16.317609460083215, 92.54165441758738, 0, -4.789197483034968E-06, -98.48077825085599, -17.364836344364008, 0, 0.016450149938464165, -0.008928360417485237, -0.004069523885846138, 1], "mesh" : 1, "name" : "Curve.003"}], "scene" : 0, "scenes" : [{"nodes" : [0, 1]}]}