{"accessors" : [{"bufferView" : 0, "byteOffset" : 0, "componentType" : 5123, "count" : 1140, "type" : "SCALAR", "max" : [957], "min" : [0]}, {"bufferView" : 1, "byteOffset" : 0, "componentType" : 5126, "count" : 958, "type" : "VEC3", "max" : [0.345539391040802, 0.06000000238418579, 0.26405587792396545], "min" : [-0.24255070090293884, -0.06000000238418579, -0.26714903116226196], "name" : "POSITION"}, {"bufferView" : 1, "byteOffset" : 12, "componentType" : 5126, "count" : 958, "type" : "VEC3", "max" : [0.9791797995567322, 1.0000044107437134, 0.9973030090332031], "min" : [-0.979276716709137, -1.0000044107437134, -0.99730384349823], "name" : "NORMAL"}], "asset" : {"generator" : "Aspose.3D 22.10", "version" : "2.0"}, "buffers" : [{"uri" : "data:application/octet-stream;base64,", "byteLength" : 29648}], "bufferViews" : [{"buffer" : 0, "byteOffset" : 0, "byteLength" : 2280, "target" : 34963}, {"buffer" : 0, "byteOffset" : 2284, "byteLength" : 27360, "byteStride" : 24, "target" : 34962}], "materials" : [{"name" : "Material.001", "pbrMetallicRoughness" : {"baseColorFactor" : [0.13013651967048645, 0.12477182596921921, 1, 1], "metallicFactor" : 0, "roughnessFactor" : 0.4000000059604645}, "emissiveFactor" : [0, 0, 0], "alphaMode" : "OPAQUE", "doubleSided" : true}], "meshes" : [{"primitives" : [{"attributes" : {"POSITION" : 1, "NORMAL" : 2}, "indices" : 0, "material" : 0, "mode" : 4}]}], "nodes" : [{"matrix" : [0.9396926279875769, 0.02980904224008807, -0.3407186292287321, 0, 0.3420201211957812, -0.08189973972926445, 0.9361167878911478, 0, -2.6711145295621463E-08, -0.9961946721776551, -0.08715587316572071, 0, -0.05128345638513565, -0.019667528569698334, -0.0033540150616317987, 1], "mesh" : 0, "name" : "Curve"}], "scene" : 0, "scenes" : [{"nodes" : [0]}]}